# xmcd
#
# Track frame offsets: 
#        150
#        16661
#        32809
#        51877
#        65969
#        81979
#        99122
#        114456
#        130533
#        151411
#        172542
#        189498
#        206130
#        222487
#        240985
#        259295
#        281900
#        309992
#
# Disc length: 4736 seconds
#
# Revision: 0
# Processed by: cddbd v1.5PL3 Copyright (c) Steve Scherf et al.
# Submitted via: ExactAudioCopy v0.95a5
#
DISCID=f5127e12
DTITLE=Blue - Guilty(CD-Extra)
DYEAR=2003
DGENRE=Blues
TTITLE0=STAND UP
TTITLE1=SIGNED. SEALED. DELIVERED I'M YOURS
TTITLE2=WHEN SUMMER'S GONE
TTITLE3=BUBBLIN'
TTITLE4=TASTE IT
TTITLE5=GULITY
TTITLE6=ROCK THE NIGHT
TTITLE7=BACK IT UP
TTITLE8=BREATHE EASY
TTITLE9=WALK AWAY
TTITLE10=WHERE YOU WANT ME
TTITLE11=ALIVE
TTITLE12=I WANNA KNOW
TTITLE13=HOW A MAN'S SUPPOSED TO CHANGE
TTITLE14=NO GOODBYES
TTITLE15=THE GIFT
TTITLE16=ELEMENTS
TTITLE17=Data
EXTD=
EXTT0=
EXTT1=
EXTT2=
EXTT3=
EXTT4=
EXTT5=
EXTT6=
EXTT7=
EXTT8=
EXTT9=
EXTT10=
EXTT11=
EXTT12=
EXTT13=
EXTT14=
EXTT15=
EXTT16=
EXTT17=
PLAYORDER=
